:SAMPLES-PER-SECOND 30
:FULLY-SPECIFIED
:DEGREES
63
root  -2.45017 40.9212 0.641639 38.6375 -88.998 -40.617
RightUpLeg  3.79927 -1.24909 -1.18977
RightLeg  -0.415364 -18.704 0.0511528
RightFoot  -0.499313 -0.327045 3.40829
RightToes  -3.13006e-008 1.75238e-005 3.56266e-009
Spine  -4.01727 0.941853 2.43644
Spine1  5.28658 1.61489 -3.73403
HEad  -4.45197 -3.1763 1.60075
LeftShoulder1  1.743 -4.86269 -13.9006
LeftArm  -57.3904 -45.688 -27.2388
LeftForeArm  90.3522 -79.9622 -89.1209
LeftHand  -0.837369 0.306712 19.1201
RightShoulder  1.73842 5.15874 13.0936
RightArm  -67.4007 36.5277 14.1268
RightForeArm  87.5193 78.6922 105.518
RightHand  -1.55854 9.7056 -12.3059
LeftUpLeg  3.18279 1.68521 2.12741
LeftLeg  1.02409 11.0562 -0.591999
LeftFoot  -1.89398 0.151636 -1.69711
LeftToes  4.78685e-008 1.46778e-008 1.34523e-009
64
root  -2.5294 40.9227 0.490651 5.5894 -87.8838 -7.21368
RightUpLeg  3.79731 -1.33681 -1.12189
RightLeg  -0.628583 -19.8485 0.219842
RightFoot  -0.665628 -0.309633 3.26349
RightToes  -3.13006e-008 1.75238e-005 3.56266e-009
Spine  -3.1735 1.07205 3.57961
Spine1  3.26419 2.06167 -5.72781
HEad  -3.04556 -2.77925 1.22432
LeftShoulder1  1.62752 -4.80688 -12.522
LeftArm  -60.5539 -50.5765 -26.4603
LeftForeArm  95.2251 -80.0844 -91.3468
LeftHand  -0.780585 0.634319 19.029
RightShoulder  1.38458 4.34017 10.4415
RightArm  -72.8776 39.7218 11.0102
RightForeArm  94.0421 78.4156 110.754
RightHand  -1.56881 9.60632 -12.4608
LeftUpLeg  2.74775 1.40811 2.09605
LeftLeg  1.01911 10.1066 -0.404511
LeftFoot  -1.75 0.175062 -1.96157
LeftToes  4.78685e-008 1.46778e-008 1.34523e-009
65
root  -2.58941 40.9246 0.306243 0.648388 -86.5653 -1.90395
RightUpLeg  3.67871 -1.45174 -1.04921
RightLeg  -0.701601 -21.1001 0.38301
RightFoot  -0.872341 -0.29118 3.11166
RightToes  -3.13006e-008 1.75238e-005 3.56266e-009
Spine  -2.5964 0.964712 4.52752
Spine1  1.73322 2.25812 -7.77904
HEad  -1.65348 -3.14879 1.18852
LeftShoulder1  1.51115 -4.72985 -11.1604
LeftArm  -64.4992 -53.7316 -25.2899
LeftForeArm  99.4538 -80.1205 -94.3135
LeftHand  -0.870377 0.159478 19.3123
RightShoulder  1.1437 3.73306 8.3468
RightArm  -77.1021 42.0263 8.61244
RightForeArm  101.935 77.7478 118.192
RightHand  -1.65619 9.27189 -13.3983
LeftUpLeg  2.27435 1.3438 2.22281
LeftLeg  0.977635 8.88171 -0.447052
LeftFoot  -1.62928 0.200699 -2.24773
LeftToes  4.78685e-008 1.46778e-008 1.34523e-009
66
root  -2.66216 40.9269 0.0932711 -0.830126 -85.2292 -0.23117
RightUpLeg  3.91041 -1.55359 -0.869882
RightLeg  -1.12109 -22.3322 0.738901
RightFoot  -0.988913 -0.260243 2.79662
RightToes  -3.13006e-008 1.75238e-005 3.56266e-009
Spine  -2.04601 0.947012 5.30462
Spine1  0.503331 2.50978 -9.72944
HEad  -0.0789859 -3.56931 1.16938
LeftShoulder1  1.38434 -4.42292 -10.1642
LeftArm  -66.7441 -56.2607 -26.058
LeftForeArm  105.259 -79.9594 -100.463
LeftHand  -0.63958 1.53276 19.1423
RightShoulder  0.924198 2.99606 6.58813
RightArm  -79.4786 43.044 7.81159
RightForeArm  110.456 76.5 127.034
RightHand  -1.45218 8.925 -12.0974
LeftUpLeg  2.0363 1.21644 2.36378
LeftLeg  0.840434 7.62149 -0.305946
LeftFoot  -1.3614 0.213775 -2.35494
LeftToes  4.78685e-008 1.46778e-008 1.34523e-009
67
root  -2.73697 40.9201 -0.131247 -1.0254 -83.5839 0.0624059
RightUpLeg  4.23029 -1.64231 -0.586178
RightLeg  -1.48402 -23.9118 1.10868
RightFoot  -1.15575 -0.234339 2.54036
RightToes  -3.13006e-008 1.75238e-005 3.56266e-009
Spine  -2.17643 0.502866 6.17984
Spine1  0.514168 2.44499 -12.0029
HEad  0.767731 -2.66723 1.51489
LeftShoulder1  1.22697 -3.74929 -9.5641
LeftArm  -67.953 -58.0394 -27.2098
LeftForeArm  114.075 -79.5274 -109.657
LeftHand  -0.758286 1.03088 20.153
RightShoulder  0.811491 2.46483 5.86674
RightArm  -80.2142 43.6578 7.9927
RightForeArm  117.655 74.9017 134.626
RightHand  -1.51643 9.3501 -12.2663
LeftUpLeg  1.70189 1.13256 2.61471
LeftLeg  1.00121 6.08422 -0.105502
LeftFoot  -1.32342 0.253999 -2.80711
LeftToes  4.78685e-008 1.46778e-008 1.34523e-009
68
root  -2.79409 40.9057 -0.407177 -1.24879 -81.8272 0.0684466
RightUpLeg  4.81486 -1.70231 -0.1851
RightLeg  -1.78801 -25.6259 1.45098
RightFoot  -1.39148 -0.216522 2.37628
RightToes  -3.13006e-008 1.75238e-005 3.56266e-009
Spine  -2.08255 0.183782 5.75962
Spine1  0.740236 2.31884 -12.625
HEad  1.87065 -2.87268 1.68096
LeftShoulder1  1.20303 -3.56044 -9.68071
LeftArm  -68.3503 -57.9796 -27.1606
LeftForeArm  117.468 -79.2748 -113.04
LeftHand  -0.733585 1.18505 20.1926
RightShoulder  0.701581 1.84265 5.34344
RightArm  -79.1289 43.3251 9.15094
RightForeArm  123.058 73.223 140.365
RightHand  -1.47298 8.4082 -12.6842
LeftUpLeg  1.49627 1.1216 2.95971
LeftLeg  1.44472 4.33168 0.139038
LeftFoot  -1.3333 0.286415 -3.18087
LeftToes  4.78685e-008 1.46778e-008 1.34523e-009
69
root  -2.84152 40.8749 -0.700423 -2.00537 -80.2529 0.391581
RightUpLeg  5.30374 -1.99526 0.0768763
RightLeg  -1.44685 -26.8677 1.6515
RightFoot  -1.95433 -0.184374 2.08221
RightToes  -3.13006e-008 1.75238e-005 3.56266e-009
Spine  -2.53331 0.106757 4.86566
Spine1  2.42932 2.524 -12.7058
HEad  2.28038 -3.84501 2.27985
LeftShoulder1  1.27316 -3.80631 -10.1169
LeftArm  -67.8559 -57.7757 -27.4378
LeftForeArm  125.485 -78.6192 -120.444
LeftHand  -0.798621 0.898993 20.5716
RightShoulder  0.708583 1.77978 5.63577
RightArm  -78.1231 41.7069 9.04095
RightForeArm  127.477 71.74 144.384
RightHand  -1.55896 8.99702 -12.8823
LeftUpLeg  1.40787 1.14087 3.28916
LeftLeg  2.11064 2.75634 0.342422
LeftFoot  -1.59761 0.331109 -3.77252
LeftToes  4.78685e-008 1.46778e-008 1.34523e-009
70
root  -2.86139 40.8255 -0.991674 -3.22087 -78.8011 0.791035
RightUpLeg  5.92772 -2.29635 0.34867
RightLeg  -0.630678 -28.0145 1.48491
RightFoot  -2.61936 -0.153037 1.77137
RightToes  -3.13006e-008 1.75238e-005 3.56266e-009
Spine  -2.6511 0.0160664 3.72713
Spine1  4.46237 2.74858 -12.4904
HEad  2.18522 -4.31329 2.69148
LeftShoulder1  1.27241 -3.83153 -10.0371
LeftArm  -66.6543 -56.8633 -27.8549
LeftForeArm  128.1 -78.2732 -123.196
LeftHand  -0.949216 0.164429 21.062
RightShoulder  0.85159 2.37194 6.89635
RightArm  -77.457 39.604 7.92931
RightForeArm  128.461 70.3292 147.189
RightHand  -1.41197 9.55691 -11.3002
LeftUpLeg  1.57112 1.01864 3.49691
LeftLeg  3.01838 1.39139 0.676008
LeftFoot  -1.94644 0.374872 -4.41994
LeftToes  4.78685e-008 1.46778e-008 1.34523e-009
71
root  -2.86879 40.7671 -1.24572 -4.27236 -78.1161 1.08819
RightUpLeg  6.15583 -2.81394 0.372647
RightLeg  0.792162 -28.0849 1.24987
RightFoot  -3.49167 -0.13052 1.55734
RightToes  -3.13006e-008 1.75238e-005 3.56266e-009
Spine  -3.29874 0.210038 2.76296
Spine1  7.29568 3.27489 -12.0666
HEad  1.15608 -4.86054 2.77321
LeftShoulder1  1.29514 -3.92588 -10.135
LeftArm  -65.9431 -55.9059 -28.057
LeftForeArm  130.583 -77.9388 -125.646
LeftHand  -0.885118 0.468734 20.8484
RightShoulder  0.862637 2.36491 7.11851
RightArm  -76.0255 38.5732 8.89054
RightForeArm  131.111 69.4895 148.931
RightHand  -1.52365 10.4912 -11.4779
LeftUpLeg  1.69733 0.97176 3.70683
LeftLeg  4.07217 0.734696 0.906772
LeftFoot  -2.44796 0.398317 -4.93358
LeftToes  4.78685e-008 1.46778e-008 1.34523e-009
72
root  -2.85055 40.7173 -1.44051 -4.58542 -78.0477 0.805083
RightUpLeg  6.16125 -3.07088 0.541605
RightLeg  2.08646 -27.8255 0.89901
RightFoot  -4.08276 -0.119301 1.43601
RightToes  -3.13006e-008 1.75238e-005 3.56266e-009
Spine  -3.37929 0.488217 2.183
Spine1  9.02832 3.74231 -11.6459
HEad  0.445501 -5.70802 2.56119
LeftShoulder1  1.27839 -3.72826 -10.4007
LeftArm  -65.0139 -54.9229 -28.1754
LeftForeArm  130.267 -77.8628 -125.928
LeftHand  -1.04966 -0.474123 20.7769
RightShoulder  0.871637 2.35754 7.3071
RightArm  -74.4567 38.0813 10.1768
RightForeArm  131.563 69.1448 149.525
RightHand  -1.53261 9.89603 -11.9652
LeftUpLeg  1.72441 0.95695 3.98201
LeftLeg  5.08738 0.712897 1.0924
LeftFoot  -2.91255 0.405503 -5.25913
LeftToes  4.78685e-008 1.46778e-008 1.34523e-009
73
root  -2.83714 40.669 -1.57775 -3.99902 -78.4631 -0.0898368
RightUpLeg  5.96031 -3.11419 0.832267
RightLeg  3.06923 -27.3732 0.638898
RightFoot  -4.55635 -0.115612 1.39533
RightToes  -3.13006e-008 1.75238e-005 3.56266e-009
Spine  -3.60234 0.896038 2.06978
Spine1  10.0839 4.25924 -11.4057
HEad  0.175795 -6.69247 2.52867
LeftShoulder1  1.3659 -4.09387 -10.7426
LeftArm  -64.8695 -54.4171 -27.269
LeftForeArm  127.406 -78.0954 -123.937
LeftHand  -1.01502 -0.36417 20.4847
RightShoulder  0.942641 2.66239 7.78183
RightArm  -73.3368 37.6003 10.5921
RightForeArm  130.878 69.3376 149.138
RightHand  -1.57173 9.78548 -12.3441
LeftUpLeg  1.58291 1.10895 4.41163
LeftLeg  6.03279 0.929957 1.13212
LeftFoot  -3.33173 0.381607 -5.16925
LeftToes  4.78685e-008 1.46778e-008 1.34523e-009
74
root  -2.84884 40.6597 -1.63011 -3.18888 -79.1813 -0.927053
RightUpLeg  5.87641 -3.11687 0.963689
RightLeg  3.18555 -26.5978 0.807639
RightFoot  -4.59553 -0.103739 1.21621
RightToes  -3.13006e-008 1.75238e-005 3.56266e-009
Spine  -3.77002 1.12742 2.24584
Spine1  10.2683 4.49634 -11.3826
HEad  0.199324 -6.98153 2.47956
LeftShoulder1  1.36518 -4.144 -10.598
LeftArm  -65.2137 -54.3512 -26.7438
LeftForeArm  124.324 -78.533 -120.554
LeftHand  -0.940244 -0.0229362 20.1424
RightShoulder  0.968324 2.81636 7.8187
RightArm  -72.7954 37.6441 11.103
RightForeArm  130.431 69.756 148.41
RightHand  -1.5926 9.66717 -12.5952
LeftUpLeg  1.56294 1.02033 4.60655
LeftLeg  6.38152 1.6377 1.39007
LeftFoot  -3.62378 0.404485 -5.67004
LeftToes  4.78685e-008 1.46778e-008 1.34523e-009
75
root  -2.86864 40.677 -1.59851 -2.31902 -80.4626 -1.55069
RightUpLeg  5.68814 -2.89549 1.02672
RightLeg  2.85895 -25.5167 0.953509
RightFoot  -4.35757 -0.107492 1.26672
RightToes  -3.13006e-008 1.75238e-005 3.56266e-009
Spine  -3.88912 1.35463 2.74638
Spine1  9.73734 4.65477 -11.5598
HEad  -0.233448 -7.01137 2.72572
LeftShoulder1  1.30695 -3.98836 -10.1505
LeftArm  -66.3066 -55.2242 -26.2659
LeftForeArm  121.17 -78.9934 -116.561
LeftHand  -0.823441 0.52057 19.6184
RightShoulder  0.981535 2.96546 7.64606
RightArm  -73.0435 37.6935 11.1534
RightForeArm  130.148 70.4072 147.275
RightHand  -1.60442 9.41936 -12.8861
LeftUpLeg  1.75944 1.35362 4.73571
LeftLeg  6.00657 2.57779 1.38433
LeftFoot  -3.55256 0.386195 -5.35785
LeftToes  4.78685e-008 1.46778e-008 1.34523e-009
76
root  -2.85679 40.7161 -1.50144 -1.93754 -81.5087 -1.46038
RightUpLeg  5.34145 -2.7417 0.879404
RightLeg  2.3215 -24.6795 1.13045
RightFoot  -3.93926 -0.112135 1.31674
RightToes  -3.13006e-008 1.75238e-005 3.56266e-009
Spine  -3.52887 1.26354 2.84402
Spine1  8.25975 4.28416 -11.2907
HEad  -0.741965 -6.63742 3.24693
LeftShoulder1  1.2516 -3.95189 -9.40868
LeftArm  -68.7908 -55.9428 -23.7414
LeftForeArm  117.272 -79.3931 -112.044
LeftHand  -0.935845 0.206877 20.9181
RightShoulder  0.91664 2.68932 7.23456
RightArm  -73.8719 37.9032 10.9464
RightForeArm  129.257 70.9322 146.209
RightHand  -1.61232 9.44963 -12.9149
LeftUpLeg  1.80845 1.49323 4.61471
LeftLeg  5.28847 3.47309 1.30381
LeftFoot  -3.2702 0.39441 -5.31173
LeftToes  4.78685e-008 1.46778e-008 1.34523e-009
77
root  -2.85105 40.7569 -1.34618 -1.53714 -82.4143 -1.37543
RightUpLeg  5.12401 -2.48632 0.741812
RightLeg  1.48979 -24.0972 1.26329
RightFoot  -3.40709 -0.117115 1.35628
RightToes  -3.13006e-008 1.75238e-005 3.56266e-009
Spine  -3.2517 0.898924 2.80022
Spine1  6.83769 3.54612 -10.5966
HEad  -1.71603 -6.00396 4.61053
LeftShoulder1  1.11523 -3.5399 -8.34885
LeftArm  -71.9579 -56.5667 -20.2781
LeftForeArm  111.517 -79.8649 -105.144
LeftHand  -1.03944 -0.238126 21.4023
RightShoulder  0.880422 2.57713 6.86382
RightArm  -75.3435 37.8447 10.0539
RightForeArm  129.319 71.425 145.284
RightHand  -1.74523 10.081 -13.3997
LeftUpLeg  1.85778 1.68443 4.47708
LeftLeg  4.51499 4.17862 1.03312
LeftFoot  -2.97503 0.383017 -4.98956
LeftToes  4.78685e-008 1.46778e-008 1.34523e-009
